<svg version="1" xmlns="http://www.w3.org/2000/svg" width="206.667" height="206.667" viewBox="0 0 155.000000 155.000000"><path d="M60.5 4.4c-26.4 6-47.2 26-54.7 52.3-2.9 10.2-3.1 30.4-.4 40.2 2.2 8.1 6.5 17.6 10.6 23.6 3.7 5.4 3.9 4.9-5.7 14.1-7.3 7-8.2 10.6-3.8 14.9 2.2 2.3 3.2 2.5 10.8 2.5 8.9 0 16.8-1.8 22.8-5.3l3.6-2.1 5.1 2.2c8.5 3.7 17 5.2 29.2 5.2 22.9 0 38.4-6.2 53.5-21.4 15.1-15.2 21-30.3 21-53.6 0-11.3-.4-14.7-2.4-21-7.4-24.1-24.4-41.7-47.6-49.6-6.9-2.3-9.9-2.8-22-3-9.4-.3-16 .1-20 1zm35.7 12.4c13.3 4.8 22.8 11.2 30.5 20.7C138.9 52.6 144 71 140.6 88.1c-3.6 17.7-13.4 32.6-27.9 42.2-19.1 12.7-40.1 14.3-61.3 4.7-7.7-3.5-10.6-3.7-14.2-1.1-3.7 2.5-9 5.2-12.4 6.2l-2.9.8 3.2-3.6c7-8.1 7.7-14.9 2.2-22C20 105.7 14 88.6 14 77.3c.1-12 5.7-27.8 13.8-38.2 8.4-11 22.3-20.2 35.7-23.5 8.4-2.2 25.1-1.5 32.7 1.2z"/><path d="M45.7 71.8c-1.9 2.1-2.2 8.3-.7 11.3 1.5 2.6 10 2.7 12.3.1 2.3-2.6 2.2-9.4-.1-11.5-2.6-2.3-9.4-2.2-11.5.1zM72 72c-2.4 2.4-2.6 7.7-.4 10.8 1.2 1.8 2.5 2.2 6.4 2.2 5.7 0 8-2.2 8-7.7 0-4.6-3-7.3-8-7.3-2.7 0-4.7.7-6 2zM98.7 71.8c-2.3 2.6-2.2 9.4.1 11.5 2.4 2.2 9.5 2.2 11.6.1 2.3-2.2 2.1-9.6-.2-11.7-2.6-2.3-9.4-2.2-11.5.1z"/></svg>